<svg width="85" height="1395" viewBox="0 0 85 1395" fill="none" xmlns="http://www.w3.org/2000/svg">
<circle cx="40" cy="8" r="7" stroke="#00A1B6" stroke-width="2"/>
<circle cx="77" cy="1387" r="7" stroke="#00A1B6" stroke-width="2"/>
<path d="M36.6323 14C24.5732 31.1982 7.69038 79.0789 36.6323 133.017C72.8097 200.439 42.1137 253.061 36.6323 262.517C31.1509 271.972 7.43126 323.567 36.6323 391.811C65.8333 460.056 44.0073 510.211 36.6323 522.133C29.2573 534.056 -7.05014 592.982 34.846 682" stroke="#00A1B6" stroke-width="3"/>
<path d="M27.9999 538C17.4999 566.5 3.9999 607 29.5229 669.419C60.3555 744.824 34.7232 800.965 29.5229 811.327C24.3225 821.688 1.8193 878.226 29.5228 953.009C57.2264 1027.79 36.5197 1082.75 29.5228 1095.82C22.526 1108.88 -48.5 1263.5 71.5002 1383" stroke="#00A1B6" stroke-width="3"/>
</svg>
