<svg width="188" height="1560" viewBox="0 0 188 1560" fill="none" xmlns="http://www.w3.org/2000/svg">
<circle cx="106" cy="11" r="9" stroke="#00A1B6" stroke-width="4"/>
<path d="M100.951 17C44.6748 56.1335 -31.1115 168.084 103.951 290.816C272.779 444.232 129.531 563.971 103.951 585.487C78.3707 607.003 -32.3207 724.403 103.951 879.69C240.222 1034.98 138.367 1149.1 103.951 1176.23C69.5339 1203.36 -99.9005 1337.44 95.6146 1540" stroke="#00A1B6" stroke-width="5"/>
<path d="M111 1548C111 1553.6 106.667 1558 101.5 1558C96.3327 1558 92 1553.6 92 1548C92 1542.4 96.3327 1538 101.5 1538C106.667 1538 111 1542.4 111 1548Z" stroke="#00A1B6" stroke-width="4"/>
</svg>
