<svg width="376" height="1751" viewBox="0 0 376 1751" fill="none" xmlns="http://www.w3.org/2000/svg">
<circle cx="217" cy="14" r="12" stroke="#00A1B6" stroke-width="4"/>
<path d="M215 1736.86C215 1743.31 209.321 1748.79 202 1748.79C194.679 1748.79 189 1743.31 189 1736.86C189 1730.4 194.679 1724.92 202 1724.92C209.321 1724.92 215 1730.4 215 1736.86Z" stroke="#00A1B6" stroke-width="4"/>
<path d="M208.427 18.8605C94.1571 63.0198 -65.8211 185.962 208.427 324.457C551.238 497.576 260.368 632.693 208.427 656.972C156.486 681.25 -68.2765 813.728 208.427 988.958C485.131 1164.19 278.312 1292.97 208.427 1323.58C138.543 1354.2 -205.5 1505.5 191.501 1734.07" stroke="#00A1B6" stroke-width="5"/>
</svg>
